<svg width="111" height="18" viewBox="0 0 111 18" fill="none" xmlns="http://www.w3.org/2000/svg">
<path d="M15.4369 12.12C14.2369 12.12 13.2369 11.716 12.4369 10.908C11.6449 10.1 11.2489 9.06 11.2489 7.788C11.2489 6.508 11.6449 5.472 12.4369 4.68C13.2289 3.88 14.2289 3.48 15.4369 3.48C16.3809 3.48 17.2009 3.712 17.8969 4.176C18.6009 4.632 19.0569 5.264 19.2649 6.072L17.9809 6.468C17.8529 5.964 17.5569 5.552 17.0929 5.232C16.6289 4.912 16.0769 4.752 15.4369 4.752C14.6209 4.752 13.9489 5.032 13.4209 5.592C12.8929 6.152 12.6289 6.884 12.6289 7.788C12.6289 8.7 12.8929 9.44 13.4209 10.008C13.9489 10.568 14.6209 10.848 15.4369 10.848C16.0769 10.848 16.6289 10.688 17.0929 10.368C17.5569 10.048 17.8569 9.636 17.9929 9.132L19.2649 9.528C19.0569 10.336 18.6009 10.972 17.8969 11.436C17.2009 11.892 16.3809 12.12 15.4369 12.12ZM22.9417 12.12C22.0857 12.12 21.3737 11.844 20.8057 11.292C20.2457 10.732 19.9657 10 19.9657 9.096C19.9657 8.2 20.2457 7.472 20.8057 6.912C21.3657 6.352 22.0697 6.072 22.9177 6.072C23.7497 6.072 24.4297 6.34 24.9577 6.876C25.4937 7.404 25.7617 8.104 25.7617 8.976C25.7617 9.104 25.7537 9.24 25.7377 9.384H21.2497C21.2977 9.92 21.4737 10.34 21.7777 10.644C22.0817 10.94 22.4697 11.088 22.9417 11.088C23.3097 11.088 23.6257 10.996 23.8897 10.812C24.1617 10.628 24.3297 10.368 24.3937 10.032L25.5217 10.368C25.3697 10.936 25.0577 11.372 24.5857 11.676C24.1217 11.972 23.5737 12.12 22.9417 12.12ZM21.3217 8.4H24.5137C24.4577 8.032 24.2857 7.728 23.9977 7.488C23.7097 7.24 23.3537 7.116 22.9297 7.116C22.5377 7.116 22.1977 7.228 21.9097 7.452C21.6217 7.676 21.4257 7.992 21.3217 8.4ZM31.0374 4.824C30.7094 5.152 30.2774 5.316 29.7414 5.316C29.2054 5.316 28.7734 5.152 28.4454 4.824C28.1174 4.496 27.9534 4.064 27.9534 3.528H28.8894C28.8894 3.816 28.9654 4.048 29.1174 4.224C29.2774 4.4 29.4854 4.488 29.7414 4.488C29.9974 4.488 30.2054 4.4 30.3654 4.224C30.5254 4.048 30.6054 3.816 30.6054 3.528H31.5414C31.5414 4.064 31.3734 4.496 31.0374 4.824ZM27.0174 12V6.192H28.3014V9.888L31.3494 6.192H32.4534V12H31.1694V8.304L28.1214 12H27.0174ZM37.7078 6.192H38.9918V12H37.7078V9.732C37.3078 10.244 36.7398 10.5 36.0038 10.5C35.3318 10.5 34.7878 10.308 34.3718 9.924C33.9558 9.532 33.7478 8.984 33.7478 8.28V6.192H35.0318V7.956C35.0318 8.404 35.1518 8.744 35.3918 8.976C35.6398 9.208 35.9678 9.324 36.3758 9.324C36.7758 9.324 37.0958 9.188 37.3358 8.916C37.5838 8.644 37.7078 8.268 37.7078 7.788V6.192ZM45.7345 11.016C45.7745 11.016 45.8505 11.004 45.9625 10.98V12.06C45.8185 12.1 45.6505 12.12 45.4585 12.12C44.7865 12.12 44.3625 11.864 44.1865 11.352C43.7625 11.864 43.1465 12.12 42.3385 12.12C41.7225 12.12 41.2225 11.968 40.8385 11.664C40.4545 11.352 40.2625 10.924 40.2625 10.38C40.2625 9.852 40.4425 9.44 40.8025 9.144C41.1625 8.848 41.6265 8.672 42.1945 8.616L44.1145 8.412V8.304C44.1145 7.928 43.9985 7.636 43.7665 7.428C43.5345 7.212 43.2345 7.104 42.8665 7.104C42.5625 7.104 42.3025 7.18 42.0865 7.332C41.8785 7.484 41.7385 7.7 41.6665 7.98L40.5265 7.776C40.6465 7.2 40.9265 6.772 41.3665 6.492C41.8065 6.212 42.3305 6.072 42.9385 6.072C43.6985 6.072 44.2985 6.264 44.7385 6.648C45.1785 7.032 45.3985 7.576 45.3985 8.28V10.68C45.3985 10.904 45.5105 11.016 45.7345 11.016ZM42.7225 11.136C43.1545 11.104 43.4945 10.96 43.7425 10.704C43.9905 10.448 44.1145 10.092 44.1145 9.636V9.384L42.4465 9.576C41.8385 9.656 41.5345 9.924 41.5345 10.38C41.5345 10.644 41.6505 10.84 41.8825 10.968C42.1145 11.096 42.3945 11.152 42.7225 11.136ZM49.7073 12.12C48.8513 12.12 48.1393 11.844 47.5713 11.292C47.0113 10.732 46.7313 10.004 46.7313 9.108C46.7313 8.22 47.0113 7.492 47.5713 6.924C48.1393 6.356 48.8513 6.072 49.7073 6.072C50.3553 6.072 50.9273 6.232 51.4233 6.552C51.9193 6.864 52.2353 7.304 52.3713 7.872L51.2433 8.232C51.1713 7.928 50.9993 7.684 50.7273 7.5C50.4553 7.316 50.1353 7.224 49.7673 7.224C49.2713 7.224 48.8593 7.396 48.5313 7.74C48.2113 8.084 48.0513 8.536 48.0513 9.096C48.0513 9.656 48.2153 10.108 48.5433 10.452C48.8713 10.796 49.2833 10.968 49.7793 10.968C50.1393 10.968 50.4553 10.876 50.7273 10.692C50.9993 10.508 51.1713 10.26 51.2433 9.948L52.3713 10.308C52.2353 10.884 51.9193 11.332 51.4233 11.652C50.9273 11.964 50.3553 12.12 49.7073 12.12ZM59.5779 6.072C60.3939 6.072 61.0739 6.356 61.6179 6.924C62.1619 7.484 62.4339 8.208 62.4339 9.096C62.4339 9.984 62.1619 10.712 61.6179 11.28C61.0819 11.84 60.4059 12.12 59.5899 12.12C58.7339 12.12 58.0739 11.812 57.6099 11.196V14.4H56.3259V6.192H57.6099V6.984C58.0819 6.376 58.7379 6.072 59.5779 6.072ZM59.3499 10.992C59.8459 10.992 60.2619 10.82 60.5979 10.476C60.9419 10.124 61.1139 9.664 61.1139 9.096C61.1139 8.528 60.9419 8.072 60.5979 7.728C60.2619 7.376 59.8459 7.2 59.3499 7.2C58.8459 7.2 58.4299 7.376 58.1019 7.728C57.7739 8.08 57.6099 8.536 57.6099 9.096C57.6099 9.656 57.7739 10.112 58.1019 10.464C58.4299 10.816 58.8459 10.992 59.3499 10.992ZM68.797 11.016C68.837 11.016 68.913 11.004 69.025 10.98V12.06C68.881 12.1 68.713 12.12 68.521 12.12C67.849 12.12 67.425 11.864 67.249 11.352C66.825 11.864 66.209 12.12 65.401 12.12C64.785 12.12 64.285 11.968 63.901 11.664C63.517 11.352 63.325 10.924 63.325 10.38C63.325 9.852 63.505 9.44 63.865 9.144C64.225 8.848 64.689 8.672 65.257 8.616L67.177 8.412V8.304C67.177 7.928 67.061 7.636 66.829 7.428C66.597 7.212 66.297 7.104 65.929 7.104C65.625 7.104 65.365 7.18 65.149 7.332C64.941 7.484 64.801 7.7 64.729 7.98L63.589 7.776C63.709 7.2 63.989 6.772 64.429 6.492C64.869 6.212 65.393 6.072 66.001 6.072C66.761 6.072 67.361 6.264 67.801 6.648C68.241 7.032 68.461 7.576 68.461 8.28V10.68C68.461 10.904 68.573 11.016 68.797 11.016ZM65.785 11.136C66.217 11.104 66.557 10.96 66.805 10.704C67.053 10.448 67.177 10.092 67.177 9.636V9.384L65.509 9.576C64.901 9.656 64.597 9.924 64.597 10.38C64.597 10.644 64.713 10.84 64.945 10.968C65.177 11.096 65.457 11.152 65.785 11.136ZM72.7098 12.12C71.8538 12.12 71.1538 11.86 70.6098 11.34C70.0658 10.82 69.7938 10.048 69.7938 9.024C69.7938 8.64 69.8338 8.244 69.9138 7.836C69.9938 7.428 70.1258 7.008 70.3098 6.576C70.5018 6.144 70.7378 5.748 71.0178 5.388C71.2978 5.02 71.6498 4.692 72.0738 4.404C72.5058 4.108 72.9858 3.892 73.5138 3.756L75.1818 3.324V4.464L73.8738 4.824C73.1458 5.024 72.5698 5.312 72.1458 5.688C71.7298 6.064 71.3898 6.636 71.1258 7.404C71.5898 6.796 72.2418 6.492 73.0818 6.492C73.8418 6.492 74.4658 6.748 74.9538 7.26C75.4498 7.764 75.6978 8.428 75.6978 9.252C75.6978 10.124 75.4178 10.82 74.8578 11.34C74.2978 11.86 73.5818 12.12 72.7098 12.12ZM71.5818 10.512C71.8938 10.816 72.2818 10.968 72.7458 10.968C73.2098 10.968 73.5978 10.816 73.9098 10.512C74.2218 10.208 74.3778 9.804 74.3778 9.3C74.3778 8.804 74.2218 8.404 73.9098 8.1C73.5978 7.796 73.2058 7.644 72.7338 7.644C72.2618 7.644 71.8738 7.8 71.5698 8.112C71.2658 8.416 71.1138 8.816 71.1138 9.312C71.1138 9.808 71.2698 10.208 71.5818 10.512ZM81.8587 11.292C81.2747 11.844 80.5427 12.12 79.6627 12.12C78.7827 12.12 78.0507 11.844 77.4667 11.292C76.8827 10.732 76.5907 10.008 76.5907 9.12C76.5907 8.208 76.8787 7.472 77.4547 6.912C78.0387 6.352 78.7747 6.072 79.6627 6.072C80.5427 6.072 81.2747 6.352 81.8587 6.912C82.4427 7.472 82.7347 8.208 82.7347 9.12C82.7347 10.008 82.4427 10.732 81.8587 11.292ZM79.6627 10.968C80.1587 10.968 80.5747 10.8 80.9107 10.464C81.2467 10.12 81.4147 9.668 81.4147 9.108C81.4147 8.532 81.2467 8.076 80.9107 7.74C80.5827 7.396 80.1667 7.224 79.6627 7.224C79.1587 7.224 78.7387 7.396 78.4027 7.74C78.0747 8.076 77.9107 8.532 77.9107 9.108C77.9107 9.668 78.0747 10.12 78.4027 10.464C78.7387 10.8 79.1587 10.968 79.6627 10.968ZM85.1487 12V7.332H83.2287V6.192H88.3407V7.332H86.4327V12H85.1487ZM94.4259 11.016C94.4659 11.016 94.5419 11.004 94.6539 10.98V12.06C94.5099 12.1 94.3419 12.12 94.1499 12.12C93.4779 12.12 93.0539 11.864 92.8779 11.352C92.4539 11.864 91.8379 12.12 91.0299 12.12C90.4139 12.12 89.9139 11.968 89.5299 11.664C89.1459 11.352 88.9539 10.924 88.9539 10.38C88.9539 9.852 89.1339 9.44 89.4939 9.144C89.8539 8.848 90.3179 8.672 90.8859 8.616L92.8059 8.412V8.304C92.8059 7.928 92.6899 7.636 92.4579 7.428C92.2259 7.212 91.9259 7.104 91.5579 7.104C91.2539 7.104 90.9939 7.18 90.7779 7.332C90.5699 7.484 90.4299 7.7 90.3579 7.98L89.2179 7.776C89.3379 7.2 89.6179 6.772 90.0579 6.492C90.4979 6.212 91.0219 6.072 91.6299 6.072C92.3899 6.072 92.9899 6.264 93.4299 6.648C93.8699 7.032 94.0899 7.576 94.0899 8.28V10.68C94.0899 10.904 94.2019 11.016 94.4259 11.016ZM91.4139 11.136C91.8459 11.104 92.1859 10.96 92.4339 10.704C92.6819 10.448 92.8059 10.092 92.8059 9.636V9.384L91.1379 9.576C90.5299 9.656 90.2259 9.924 90.2259 10.38C90.2259 10.644 90.3419 10.84 90.5739 10.968C90.8059 11.096 91.0859 11.152 91.4139 11.136ZM98.3987 12.12C97.5427 12.12 96.8307 11.844 96.2627 11.292C95.7027 10.732 95.4227 10 95.4227 9.096C95.4227 8.2 95.7027 7.472 96.2627 6.912C96.8227 6.352 97.5267 6.072 98.3747 6.072C99.2067 6.072 99.8867 6.34 100.415 6.876C100.951 7.404 101.219 8.104 101.219 8.976C101.219 9.104 101.211 9.24 101.195 9.384H96.7067C96.7547 9.92 96.9307 10.34 97.2347 10.644C97.5387 10.94 97.9267 11.088 98.3987 11.088C98.7667 11.088 99.0827 10.996 99.3467 10.812C99.6187 10.628 99.7867 10.368 99.8507 10.032L100.979 10.368C100.827 10.936 100.515 11.372 100.043 11.676C99.5787 11.972 99.0307 12.12 98.3987 12.12ZM96.7787 8.4H99.9707C99.9147 8.032 99.7427 7.728 99.4547 7.488C99.1667 7.24 98.8107 7.116 98.3867 7.116C97.9947 7.116 97.6547 7.228 97.3667 7.452C97.0787 7.676 96.8827 7.992 96.7787 8.4ZM108.114 6.192H109.422V12H108.138V8.652L106.398 12H105.51L103.758 8.628V12H102.474V6.192H103.794L105.954 10.392L108.114 6.192Z" fill="#53DB4D"/>
<ellipse cx="2.62411" cy="8.5" rx="2.62411" ry="2.5" fill="#00D62F"/>
</svg>
